M48
METRIC,LZ,000.000
;FILE_FORMAT=3:3
;TYPE=PLATED
;Layer: PTH_Through
;EasyEDA v6.5.46, 2024-10-11 11:12:37
;061b4e8f2a7943b18cba77a0d7ce05c7,e15b515e6dd142f2995988210042fe84,10
;Gerber Generator version 0.2
;Holesize 1 = 0.400 mm
T01C0.400
;Holesize 2 = 0.800 mm
T02C0.800
;Holesize 3 = 1.050 mm
T03C1.050
%
G05
G90
T01
X024257Y-045593
X026797Y-045593
X035814Y-022098
X035814Y-029718
X026670Y-025908
X026670Y-018288
X004826Y-037973
X004826Y-045593
X014224Y-034163
X014224Y-041783
T02
X040767Y-036703
X040767Y-029083
X019939Y-020955
X019939Y-026035
X020193Y-033655
X020193Y-038735
X004699Y-014859
X004699Y-017399
X005136Y-007678
X006802Y-009595
X005144Y-026035
X007049Y-027305
X005144Y-028575
X014669Y-015748
X016574Y-017018
X014669Y-018288
X038989Y-008001
X036449Y-008001
X033909Y-008001
X055893Y-018669
X055893Y-021209
X055893Y-023749
X055893Y-026289
X047993Y-026289
X047993Y-023749
X047993Y-021209
X047993Y-018669
T03
X054686Y-005715
X049708Y-005715
X045847Y-043688
X056007Y-043688
X050927Y-043688
M30
