G04 Layer: TopLayer*
G04 EasyEDA v6.5.46, 2024-10-11 11:12:37*
G04 061b4e8f2a7943b18cba77a0d7ce05c7,e15b515e6dd142f2995988210042fe84,10*
G04 Gerber Generator version 0.2*
G04 Scale: 100 percent, Rotated: No, Reflected: No *
G04 Dimensions in millimeters *
G04 leading zeros omitted , absolute positions ,4 integer and 5 decimal *
%FSLAX45Y45*%
%MOMM*%

%AMMACRO1*1,1,$1,$2,$3*1,1,$1,$4,$5*20,1,$1,$2,$3,$4,$5,0*%
%ADD10O,1.9999959999999999X2.999994*%
%ADD11O,2.999994X2.999994*%
%ADD12C,3.0000*%
%ADD13O,2.999994X1.9999959999999999*%
%ADD14MACRO1,2X-0.3773X-0.328X0.3773X0.328*%
%ADD15O,1.8999962X2.2999954*%
%ADD16R,3.0000X2.2000*%

%LPD*%
D10*
G01*
X2425700Y-4559300D03*
G01*
X2679700Y-4559300D03*
D11*
G01*
X4076700Y-3670300D03*
G01*
X4076700Y-2908300D03*
G01*
X1993900Y-2095500D03*
G01*
X1993900Y-2603500D03*
G01*
X2019300Y-3365500D03*
G01*
X2019300Y-3873500D03*
D12*
G01*
X5468620Y-571500D03*
G01*
X4970779Y-571500D03*
D13*
G01*
X469900Y-1485900D03*
G01*
X469900Y-1739900D03*
D14*
G01*
X513587Y-767765D03*
G01*
X680212Y-959459D03*
D12*
G01*
X4584700Y-4368800D03*
D11*
G01*
X5600700Y-4368800D03*
G01*
X5092700Y-4368800D03*
D15*
G01*
X514350Y-2603500D03*
G01*
X704850Y-2730500D03*
G01*
X514350Y-2857500D03*
G01*
X1466850Y-1574800D03*
G01*
X1657350Y-1701800D03*
G01*
X1466850Y-1828800D03*
D11*
G01*
X3581400Y-2209800D03*
G01*
X3581400Y-2971800D03*
G01*
X2667000Y-2590800D03*
G01*
X2667000Y-1828800D03*
G01*
X482600Y-3797300D03*
G01*
X482600Y-4559300D03*
G01*
X1422400Y-3416300D03*
G01*
X1422400Y-4178300D03*
D10*
G01*
X3898900Y-800100D03*
G01*
X3644900Y-800100D03*
G01*
X3390900Y-800100D03*
D16*
G01*
X5589295Y-1866900D03*
G01*
X5589295Y-2120900D03*
G01*
X5589295Y-2374900D03*
G01*
X5589295Y-2628900D03*
G01*
X4799304Y-2628900D03*
G01*
X4799304Y-2374900D03*
G01*
X4799304Y-2120900D03*
G01*
X4799304Y-1866900D03*
M02*
