G04 Layer: TopSilkscreenLayer*
G04 EasyEDA v6.5.46, 2024-10-11 11:12:37*
G04 061b4e8f2a7943b18cba77a0d7ce05c7,e15b515e6dd142f2995988210042fe84,10*
G04 Gerber Generator version 0.2*
G04 Scale: 100 percent, Rotated: No, Reflected: No *
G04 Dimensions in millimeters *
G04 leading zeros omitted , absolute positions ,4 integer and 5 decimal *
%FSLAX45Y45*%
%MOMM*%

%ADD10C,0.1524*%
%ADD11C,0.1520*%
%ADD12C,0.2007*%
%ADD13C,0.2540*%
%ADD14C,0.2286*%
%ADD15C,0.5000*%
%ADD16C,0.1270*%
%ADD17C,0.3000*%
%ADD18C,0.0176*%

%LPD*%
D10*
X2607818Y-4284471D02*
G01*
X2602484Y-4274057D01*
X2592070Y-4263644D01*
X2581909Y-4258563D01*
X2561081Y-4258563D01*
X2550668Y-4263644D01*
X2540254Y-4274057D01*
X2534920Y-4284471D01*
X2529840Y-4300220D01*
X2529840Y-4326128D01*
X2534920Y-4341621D01*
X2540254Y-4352036D01*
X2550668Y-4362450D01*
X2561081Y-4367529D01*
X2581909Y-4367529D01*
X2592070Y-4362450D01*
X2602484Y-4352036D01*
X2607818Y-4341621D01*
X2642108Y-4279392D02*
G01*
X2652522Y-4274057D01*
X2668015Y-4258563D01*
X2668015Y-4367529D01*
X3834384Y-3314700D02*
G01*
X3943350Y-3314700D01*
X3834384Y-3314700D02*
G01*
X3834384Y-3278378D01*
X3839463Y-3262629D01*
X3849877Y-3252470D01*
X3860291Y-3247136D01*
X3876040Y-3242055D01*
X3901947Y-3242055D01*
X3917441Y-3247136D01*
X3927856Y-3252470D01*
X3938270Y-3262629D01*
X3943350Y-3278378D01*
X3943350Y-3314700D01*
X3855211Y-3207765D02*
G01*
X3849877Y-3197352D01*
X3834384Y-3181604D01*
X3943350Y-3181604D01*
X2261615Y-2349500D02*
G01*
X2152650Y-2349500D01*
X2261615Y-2349500D02*
G01*
X2261615Y-2385821D01*
X2256536Y-2401570D01*
X2246122Y-2411729D01*
X2235708Y-2417063D01*
X2219959Y-2422144D01*
X2194052Y-2422144D01*
X2178558Y-2417063D01*
X2168143Y-2411729D01*
X2157729Y-2401570D01*
X2152650Y-2385821D01*
X2152650Y-2349500D01*
X2261615Y-2466847D02*
G01*
X2261615Y-2523997D01*
X2219959Y-2493010D01*
X2219959Y-2508504D01*
X2214879Y-2518918D01*
X2209800Y-2523997D01*
X2194052Y-2529331D01*
X2183638Y-2529331D01*
X2168143Y-2523997D01*
X2157729Y-2513584D01*
X2152650Y-2498089D01*
X2152650Y-2482595D01*
X2157729Y-2466847D01*
X2162809Y-2461768D01*
X2173224Y-2456434D01*
X2287015Y-3619500D02*
G01*
X2178050Y-3619500D01*
X2287015Y-3619500D02*
G01*
X2287015Y-3655821D01*
X2281936Y-3671570D01*
X2271522Y-3681729D01*
X2261108Y-3687063D01*
X2245359Y-3692144D01*
X2219452Y-3692144D01*
X2203958Y-3687063D01*
X2193543Y-3681729D01*
X2183129Y-3671570D01*
X2178050Y-3655821D01*
X2178050Y-3619500D01*
X2287015Y-3778504D02*
G01*
X2214372Y-3726434D01*
X2214372Y-3804412D01*
X2287015Y-3778504D02*
G01*
X2178050Y-3778504D01*
X5220970Y-4063D02*
G01*
X5220970Y-87121D01*
X5215636Y-102870D01*
X5210556Y-107950D01*
X5200141Y-113029D01*
X5189727Y-113029D01*
X5179313Y-107950D01*
X5173979Y-102870D01*
X5168900Y-87121D01*
X5168900Y-76707D01*
X5255259Y-24892D02*
G01*
X5265420Y-19557D01*
X5281168Y-4063D01*
X5281168Y-113029D01*
X5420359Y-1023873D02*
G01*
X5427218Y-1020318D01*
X5437631Y-1009904D01*
X5437631Y-1082802D01*
X444500Y-1233881D02*
G01*
X444500Y-1342847D01*
X444500Y-1342847D02*
G01*
X506729Y-1342847D01*
X541020Y-1233881D02*
G01*
X541020Y-1342847D01*
X541020Y-1233881D02*
G01*
X608584Y-1233881D01*
X541020Y-1285697D02*
G01*
X582676Y-1285697D01*
X541020Y-1342847D02*
G01*
X608584Y-1342847D01*
X642873Y-1233881D02*
G01*
X642873Y-1342847D01*
X642873Y-1233881D02*
G01*
X679450Y-1233881D01*
X694944Y-1238961D01*
X705357Y-1249375D01*
X710437Y-1259789D01*
X715771Y-1275537D01*
X715771Y-1301445D01*
X710437Y-1316939D01*
X705357Y-1327353D01*
X694944Y-1337767D01*
X679450Y-1342847D01*
X642873Y-1342847D01*
X750062Y-1254709D02*
G01*
X760476Y-1249375D01*
X775970Y-1233881D01*
X775970Y-1342847D01*
X329072Y-594215D02*
G01*
X400560Y-676452D01*
X400560Y-676452D02*
G01*
X447525Y-635624D01*
X401916Y-530893D02*
G01*
X473405Y-613130D01*
X401916Y-530893D02*
G01*
X452907Y-486564D01*
X435909Y-569998D02*
G01*
X467349Y-542668D01*
X473405Y-613130D02*
G01*
X524395Y-568802D01*
X478787Y-464070D02*
G01*
X550275Y-546308D01*
X478787Y-464070D02*
G01*
X506389Y-440072D01*
X521416Y-433743D01*
X536107Y-434769D01*
X546775Y-439295D01*
X561131Y-447682D01*
X578129Y-467235D01*
X584268Y-482427D01*
X587265Y-493621D01*
X586239Y-508312D01*
X577877Y-522310D01*
X550275Y-546308D01*
X580514Y-409968D02*
G01*
X577179Y-406133D01*
X574372Y-394774D01*
X574708Y-387416D01*
X579234Y-376750D01*
X594954Y-363085D01*
X606145Y-360088D01*
X613481Y-360781D01*
X624337Y-365140D01*
X631169Y-373001D01*
X633976Y-384360D01*
X636282Y-402884D01*
X631169Y-475985D01*
X685995Y-428327D01*
X5067300Y-3618484D02*
G01*
X5067300Y-3727450D01*
X5067300Y-3618484D02*
G01*
X5114036Y-3618484D01*
X5129529Y-3623563D01*
X5134863Y-3628897D01*
X5139943Y-3639312D01*
X5139943Y-3654805D01*
X5134863Y-3665220D01*
X5129529Y-3670300D01*
X5114036Y-3675634D01*
X5067300Y-3675634D01*
X5205475Y-3618484D02*
G01*
X5195061Y-3623563D01*
X5184647Y-3633978D01*
X5179568Y-3644392D01*
X5174234Y-3660139D01*
X5174234Y-3686047D01*
X5179568Y-3701542D01*
X5184647Y-3711955D01*
X5195061Y-3722370D01*
X5205475Y-3727450D01*
X5226304Y-3727450D01*
X5236718Y-3722370D01*
X5247131Y-3711955D01*
X5252211Y-3701542D01*
X5257545Y-3686047D01*
X5257545Y-3660139D01*
X5252211Y-3644392D01*
X5247131Y-3633978D01*
X5236718Y-3623563D01*
X5226304Y-3618484D01*
X5205475Y-3618484D01*
X5328158Y-3618484D02*
G01*
X5328158Y-3727450D01*
X5291836Y-3618484D02*
G01*
X5364479Y-3618484D01*
X5398770Y-3639312D02*
G01*
X5409184Y-3633978D01*
X5424677Y-3618484D01*
X5424677Y-3727450D01*
D11*
X4914900Y-3885184D02*
G01*
X4914900Y-3994150D01*
X4914900Y-3885184D02*
G01*
X4961636Y-3885184D01*
X4977129Y-3890263D01*
X4982463Y-3895597D01*
X4987543Y-3906012D01*
X4987543Y-3916426D01*
X4982463Y-3926839D01*
X4977129Y-3931920D01*
X4961636Y-3937000D01*
X4914900Y-3937000D02*
G01*
X4961636Y-3937000D01*
X4977129Y-3942334D01*
X4982463Y-3947413D01*
X4987543Y-3957828D01*
X4987543Y-3973576D01*
X4982463Y-3983989D01*
X4977129Y-3989070D01*
X4961636Y-3994150D01*
X4914900Y-3994150D01*
X5021834Y-3906012D02*
G01*
X5032247Y-3900678D01*
X5047995Y-3885184D01*
X5047995Y-3994150D01*
X5113274Y-3885184D02*
G01*
X5097779Y-3890263D01*
X5087365Y-3906012D01*
X5082286Y-3931920D01*
X5082286Y-3947413D01*
X5087365Y-3973576D01*
X5097779Y-3989070D01*
X5113274Y-3994150D01*
X5123688Y-3994150D01*
X5139436Y-3989070D01*
X5149850Y-3973576D01*
X5154929Y-3947413D01*
X5154929Y-3931920D01*
X5149850Y-3906012D01*
X5139436Y-3890263D01*
X5123688Y-3885184D01*
X5113274Y-3885184D01*
X5189220Y-3885184D02*
G01*
X5189220Y-3994150D01*
X5261863Y-3885184D02*
G01*
X5189220Y-3957828D01*
X5215127Y-3931920D02*
G01*
X5261863Y-3994150D01*
D10*
X934465Y-2736342D02*
G01*
X929386Y-2725928D01*
X918971Y-2715513D01*
X908557Y-2710179D01*
X892810Y-2705100D01*
X866902Y-2705100D01*
X851407Y-2710179D01*
X840994Y-2715513D01*
X830579Y-2725928D01*
X825500Y-2736342D01*
X825500Y-2757170D01*
X830579Y-2767329D01*
X840994Y-2777744D01*
X851407Y-2783078D01*
X866902Y-2788157D01*
X892810Y-2788157D01*
X908557Y-2783078D01*
X918971Y-2777744D01*
X929386Y-2767329D01*
X934465Y-2757170D01*
X934465Y-2736342D01*
X846073Y-2751836D02*
G01*
X815086Y-2783078D01*
X913637Y-2822447D02*
G01*
X918971Y-2832862D01*
X934465Y-2848610D01*
X825500Y-2848610D01*
X1886965Y-1707642D02*
G01*
X1881886Y-1697228D01*
X1871471Y-1686813D01*
X1861057Y-1681479D01*
X1845310Y-1676400D01*
X1819402Y-1676400D01*
X1803907Y-1681479D01*
X1793494Y-1686813D01*
X1783079Y-1697228D01*
X1778000Y-1707642D01*
X1778000Y-1728470D01*
X1783079Y-1738629D01*
X1793494Y-1749044D01*
X1803907Y-1754378D01*
X1819402Y-1759457D01*
X1845310Y-1759457D01*
X1861057Y-1754378D01*
X1871471Y-1749044D01*
X1881886Y-1738629D01*
X1886965Y-1728470D01*
X1886965Y-1707642D01*
X1798573Y-1723136D02*
G01*
X1767586Y-1754378D01*
X1886965Y-1804162D02*
G01*
X1886965Y-1861312D01*
X1845310Y-1830070D01*
X1845310Y-1845818D01*
X1840229Y-1856231D01*
X1835150Y-1861312D01*
X1819402Y-1866645D01*
X1808987Y-1866645D01*
X1793494Y-1861312D01*
X1783079Y-1850897D01*
X1778000Y-1835404D01*
X1778000Y-1819910D01*
X1783079Y-1804162D01*
X1788160Y-1799081D01*
X1798573Y-1793747D01*
X3823715Y-2590800D02*
G01*
X3714750Y-2590800D01*
X3823715Y-2590800D02*
G01*
X3823715Y-2637536D01*
X3818636Y-2653029D01*
X3813302Y-2658363D01*
X3802888Y-2663444D01*
X3792474Y-2663444D01*
X3782059Y-2658363D01*
X3776979Y-2653029D01*
X3771900Y-2637536D01*
X3771900Y-2590800D01*
X3771900Y-2627121D02*
G01*
X3714750Y-2663444D01*
X3802888Y-2697734D02*
G01*
X3808222Y-2708147D01*
X3823715Y-2723895D01*
X3714750Y-2723895D01*
X2424684Y-2209800D02*
G01*
X2533650Y-2209800D01*
X2424684Y-2209800D02*
G01*
X2424684Y-2163063D01*
X2429763Y-2147570D01*
X2435097Y-2142236D01*
X2445511Y-2137155D01*
X2455925Y-2137155D01*
X2466340Y-2142236D01*
X2471420Y-2147570D01*
X2476500Y-2163063D01*
X2476500Y-2209800D01*
X2476500Y-2173478D02*
G01*
X2533650Y-2137155D01*
X2450591Y-2097531D02*
G01*
X2445511Y-2097531D01*
X2435097Y-2092452D01*
X2429763Y-2087118D01*
X2424684Y-2076704D01*
X2424684Y-2056129D01*
X2429763Y-2045715D01*
X2435097Y-2040381D01*
X2445511Y-2035302D01*
X2455925Y-2035302D01*
X2466340Y-2040381D01*
X2481834Y-2050795D01*
X2533650Y-2102865D01*
X2533650Y-2029968D01*
X724915Y-4178300D02*
G01*
X615950Y-4178300D01*
X724915Y-4178300D02*
G01*
X724915Y-4225036D01*
X719836Y-4240529D01*
X714502Y-4245863D01*
X704087Y-4250944D01*
X693673Y-4250944D01*
X683260Y-4245863D01*
X678179Y-4240529D01*
X673100Y-4225036D01*
X673100Y-4178300D01*
X673100Y-4214621D02*
G01*
X615950Y-4250944D01*
X724915Y-4295647D02*
G01*
X724915Y-4352797D01*
X683260Y-4321810D01*
X683260Y-4337304D01*
X678179Y-4347718D01*
X673100Y-4352797D01*
X657352Y-4358131D01*
X646937Y-4358131D01*
X631444Y-4352797D01*
X621029Y-4342384D01*
X615950Y-4326889D01*
X615950Y-4311395D01*
X621029Y-4295647D01*
X626110Y-4290568D01*
X636523Y-4285234D01*
X1664715Y-3797300D02*
G01*
X1555750Y-3797300D01*
X1664715Y-3797300D02*
G01*
X1664715Y-3844036D01*
X1659636Y-3859529D01*
X1654302Y-3864863D01*
X1643887Y-3869944D01*
X1633473Y-3869944D01*
X1623060Y-3864863D01*
X1617979Y-3859529D01*
X1612900Y-3844036D01*
X1612900Y-3797300D01*
X1612900Y-3833621D02*
G01*
X1555750Y-3869944D01*
X1664715Y-3956304D02*
G01*
X1592071Y-3904234D01*
X1592071Y-3982212D01*
X1664715Y-3956304D02*
G01*
X1555750Y-3956304D01*
X4354322Y-872744D02*
G01*
X4364736Y-862329D01*
X4369815Y-846836D01*
X4369815Y-826007D01*
X4364736Y-810513D01*
X4354322Y-800100D01*
X4343908Y-800100D01*
X4333493Y-805179D01*
X4328159Y-810513D01*
X4323077Y-820928D01*
X4312663Y-852170D01*
X4307583Y-862329D01*
X4302252Y-867663D01*
X4291838Y-872741D01*
X4276343Y-872744D01*
X4265929Y-862329D01*
X4260850Y-846836D01*
X4260850Y-826007D01*
X4265929Y-810511D01*
X4276343Y-800100D01*
X4348988Y-907034D02*
G01*
X4354322Y-917447D01*
X4369815Y-933195D01*
X4260850Y-933195D01*
X5817615Y-2209800D02*
G01*
X5739638Y-2209800D01*
X5724143Y-2214879D01*
X5713729Y-2225294D01*
X5708650Y-2241042D01*
X5708650Y-2251455D01*
X5713729Y-2266950D01*
X5724143Y-2277363D01*
X5739638Y-2282444D01*
X5817615Y-2282444D01*
X5791708Y-2322068D02*
G01*
X5796788Y-2322068D01*
X5807202Y-2327147D01*
X5812536Y-2332481D01*
X5817615Y-2342895D01*
X5817615Y-2363470D01*
X5812536Y-2373884D01*
X5807202Y-2379218D01*
X5796788Y-2384297D01*
X5786374Y-2384297D01*
X5775959Y-2379218D01*
X5760465Y-2368804D01*
X5708650Y-2316734D01*
X5708650Y-2389631D01*
D12*
X2806445Y-4432554D02*
G01*
X2298445Y-4432554D01*
X2298445Y-4686554D01*
X2806445Y-4686554D01*
X2806445Y-4432554D01*
D13*
X4168140Y-3497579D02*
G01*
X3985259Y-3497579D01*
X3985259Y-3081020D01*
X4168140Y-3081020D01*
X4168140Y-3497579D01*
X4076700Y-3352800D02*
G01*
X4076700Y-3289300D01*
X4140200Y-3187700D01*
X4013200Y-3187700D01*
X4076700Y-3289300D01*
X4013200Y-3289300D01*
X4140200Y-3289300D02*
G01*
X4076700Y-3289300D01*
X4076700Y-3136900D01*
D14*
X2070100Y-2222500D02*
G01*
X2070100Y-2476500D01*
X1917700Y-2476500D01*
X1917700Y-2222500D01*
X2070100Y-2222500D01*
D13*
X1993900Y-2222500D02*
G01*
X1993900Y-2171700D01*
X1993900Y-2476500D02*
G01*
X1993900Y-2527300D01*
D15*
X2057400Y-2425700D02*
G01*
X1930400Y-2425700D01*
D14*
X2095500Y-3492500D02*
G01*
X2095500Y-3746500D01*
X1943100Y-3746500D01*
X1943100Y-3492500D01*
X2095500Y-3492500D01*
D13*
X2019300Y-3492500D02*
G01*
X2019300Y-3441700D01*
X2019300Y-3746500D02*
G01*
X2019300Y-3797300D01*
D15*
X2082800Y-3695700D02*
G01*
X1955800Y-3695700D01*
D13*
X4719320Y-149860D02*
G01*
X5720079Y-149860D01*
X5720079Y-149860D02*
G01*
X5720079Y-322579D01*
X5720079Y-322579D02*
G01*
X5720079Y-828039D01*
X5720079Y-828039D02*
G01*
X5720079Y-901700D01*
X5720079Y-901700D02*
G01*
X4719320Y-901700D01*
X4719320Y-901700D02*
G01*
X4719320Y-828039D01*
X4719320Y-828039D02*
G01*
X4719320Y-322579D01*
X4719320Y-322579D02*
G01*
X4719320Y-309879D01*
X4719320Y-309879D02*
G01*
X4719320Y-251460D01*
X4719320Y-251460D02*
G01*
X4719320Y-149860D01*
X4719320Y-251460D02*
G01*
X4660900Y-236220D01*
X4660900Y-236220D02*
G01*
X4660900Y-325120D01*
X4660900Y-325120D02*
G01*
X4719320Y-309879D01*
X4719320Y-322579D02*
G01*
X5720079Y-322579D01*
X4719320Y-828039D02*
G01*
X5720079Y-828039D01*
X339900Y-1835896D02*
G01*
X599899Y-1835896D01*
X645086Y-1117185D02*
G01*
X841311Y-946609D01*
D16*
X4242688Y-3768801D02*
G01*
X5942685Y-3768801D01*
X5942685Y-4622800D01*
X4242688Y-4622800D01*
X4242688Y-3768801D01*
D13*
X4342688Y-4114800D02*
G01*
X5842685Y-4114800D01*
X5842685Y-4622800D01*
X4342688Y-4622800D01*
X4342688Y-4114800D01*
X349250Y-2522220D02*
G01*
X349250Y-2938779D01*
X488950Y-2463800D02*
G01*
X488950Y-2504439D01*
X488950Y-2702560D02*
G01*
X488950Y-2758439D01*
X488950Y-2956560D02*
G01*
X488950Y-2997200D01*
X1301750Y-1493520D02*
G01*
X1301750Y-1910079D01*
X1441450Y-1435100D02*
G01*
X1441450Y-1475739D01*
X1441450Y-1673860D02*
G01*
X1441450Y-1729739D01*
X1441450Y-1927860D02*
G01*
X1441450Y-1968500D01*
X3581400Y-2336800D02*
G01*
X3581400Y-2311400D01*
X3581400Y-2844800D02*
G01*
X3581400Y-2870200D01*
X3581400Y-2336800D02*
G01*
X3657600Y-2336800D01*
X3505200Y-2336800D02*
G01*
X3581400Y-2336800D01*
X3505200Y-2844800D02*
G01*
X3505200Y-2336800D01*
X3581400Y-2844800D02*
G01*
X3505200Y-2844800D01*
X3657600Y-2844800D02*
G01*
X3581400Y-2844800D01*
X3657600Y-2336800D02*
G01*
X3657600Y-2844800D01*
X2667000Y-2463800D02*
G01*
X2667000Y-2489200D01*
X2667000Y-1955800D02*
G01*
X2667000Y-1930400D01*
X2667000Y-2463800D02*
G01*
X2590800Y-2463800D01*
X2743200Y-2463800D02*
G01*
X2667000Y-2463800D01*
X2743200Y-1955800D02*
G01*
X2743200Y-2463800D01*
X2667000Y-1955800D02*
G01*
X2743200Y-1955800D01*
X2590800Y-1955800D02*
G01*
X2667000Y-1955800D01*
X2590800Y-2463800D02*
G01*
X2590800Y-1955800D01*
X482600Y-3924300D02*
G01*
X482600Y-3898900D01*
X482600Y-4432300D02*
G01*
X482600Y-4457700D01*
X482600Y-3924300D02*
G01*
X558800Y-3924300D01*
X406400Y-3924300D02*
G01*
X482600Y-3924300D01*
X406400Y-4432300D02*
G01*
X406400Y-3924300D01*
X482600Y-4432300D02*
G01*
X406400Y-4432300D01*
X558800Y-4432300D02*
G01*
X482600Y-4432300D01*
X558800Y-3924300D02*
G01*
X558800Y-4432300D01*
X1422400Y-3543300D02*
G01*
X1422400Y-3517900D01*
X1422400Y-4051300D02*
G01*
X1422400Y-4076700D01*
X1422400Y-3543300D02*
G01*
X1498600Y-3543300D01*
X1346200Y-3543300D02*
G01*
X1422400Y-3543300D01*
X1346200Y-4051300D02*
G01*
X1346200Y-3543300D01*
X1422400Y-4051300D02*
G01*
X1346200Y-4051300D01*
X1498600Y-4051300D02*
G01*
X1422400Y-4051300D01*
X1498600Y-3543300D02*
G01*
X1498600Y-4051300D01*
X4226559Y-1018539D02*
G01*
X4226559Y-581660D01*
X4226559Y-581660D02*
G01*
X3063240Y-581660D01*
X3063240Y-581660D02*
G01*
X3063240Y-1018539D01*
X3063240Y-1018539D02*
G01*
X4226559Y-1018539D01*
X5511800Y-1798995D02*
G01*
X5511800Y-1765300D01*
X5321310Y-1765300D01*
X5511800Y-2052995D02*
G01*
X5511800Y-1934804D01*
X5511800Y-2306995D02*
G01*
X5511800Y-2188804D01*
X5511800Y-2560995D02*
G01*
X5511800Y-2442804D01*
X4876800Y-2696804D02*
G01*
X4876800Y-2730500D01*
X5511800Y-2730500D01*
X5511800Y-2696804D01*
X4876800Y-2442804D02*
G01*
X4876800Y-2560995D01*
X4876800Y-2188804D02*
G01*
X4876800Y-2306995D01*
X4876800Y-1970021D02*
G01*
X4876800Y-2052995D01*
X5067310Y-1767895D02*
G01*
X4876800Y-1767895D01*
G75*
G01*
X608076Y-1833067D02*
G03*
X331724Y-1833067I-138176J220244D01*
G75*
G01*
X845624Y-939112D02*
G03*
X637060Y-1120414I-248775J75569D01*
G75*
G01*
X349250Y-2521001D02*
G02*
X769191Y-2651811I165101J-209450D01*
G75*
G01*
X769191Y-2809189D02*
G02*
X349250Y-2939999I-254840J78640D01*
G75*
G01*
X1301750Y-1492301D02*
G02*
X1721691Y-1623111I165101J-209450D01*
G75*
G01*
X1721691Y-1780489D02*
G02*
X1301750Y-1911299I-254840J78640D01*
D17*
G75*
G01*
X4648200Y-1841500D02*
G03*
X4647910Y-1842120I-13732J6038D01*
D13*
G75*
G01*
X5321310Y-1767896D02*
G02*
X5067310Y-1767896I-127000J0D01*
G75*
G01
X5016500Y-281940D02*
G03X5016500Y-281940I-45720J0D01*
G75*
G01
X5514340Y-281940D02*
G03X5514340Y-281940I-45720J0D01*
M02*
